<?xml version="1.0" encoding="utf-8"?>
<!-- Generator: Adobe Illustrator 23.0.6, SVG Export Plug-In . SVG Version: 6.00 Build 0)  -->
<svg version="1.1" id="Layer_1" xmlns="http://www.w3.org/2000/svg" xmlns:xlink="http://www.w3.org/1999/xlink" x="0px" y="0px"
	 viewBox="0 0 417 189" style="enable-background:new 0 0 417 189;" xml:space="preserve">
<style type="text/css">
	.st0{fill:#D3A900;}
	.st1{fill:#C77137;}
	.st2{fill:#9F2C2C;}
</style>
<g>
	<path class="st0" d="M12.3,173.4c6.1-3.3,11.1-6.3,16.4-8.8c3.2-1.5,4.3-3.5,4.3-7.1c-0.2-29.2,0-58.4-0.2-87.6c0-3.3,1-5,3.9-6.4
		c11.5-5.6,22.9-11.6,34.4-17.1c1.6-0.8,4.2-0.7,5.8,0.1c11.2,5.3,22.1,11.1,33.3,16.2c4.2,1.9,5.3,4.3,5.3,8.8
		c-0.2,28.7-0.1,57.5-0.1,86.2c0,1.7,0.3,4.3,1.3,4.9c6,3.7,12.2,6.9,18.9,10.6c0.2-1.6,0.4-2.5,0.4-3.4c0-37.2,0-74.5-0.1-111.7
		c0-1.5-1.5-3.7-2.8-4.5C114.3,43.7,95.3,34,76.3,24.4c-1.4-0.7-3.9-0.6-5.4,0.1c-5.8,2.7-11.5,5.8-17.9,9.2c0-8.1,0-15.4,0-22.8
		c-7.1,0-13.6,0-20.4,0c0,9.6-0.2,18.9,0.1,28.1c0.1,3.8-0.6,6.3-4.6,7.8c-4,1.5-7.6,4.1-11.5,5.9c-3.2,1.4-4.3,3.4-4.3,7
		c0.2,36.1,0.1,72.3,0.1,108.4C12.3,169.6,12.3,170.9,12.3,173.4z M284.9,172.6c5.6-3.1,10.3-5.9,15.2-8.3c3.6-1.7,4.8-3.9,4.7-7.9
		c-0.2-29,0-58.1-0.2-87.1c0-3,0.8-4.8,3.6-6.1c11.5-5.6,22.8-11.6,34.4-17.1c1.8-0.9,4.9-0.7,6.8,0.2c11,5.2,21.8,11,32.8,16
		c4.4,2,5.6,4.6,5.5,9.2c-0.2,28.6-0.1,57.1,0,85.7c0,1.8,0.4,4.5,1.6,5.3c5.7,3.6,11.7,6.6,18.1,10.1c0.2-1.8,0.3-2.8,0.3-3.8
		c0-36.7,0-73.5,0.1-110.2c0-2.6-0.9-3.8-3.1-4.9c-18.7-9.5-37.3-19.2-56.1-28.6c-1.7-0.8-4.5-0.7-6.2,0.1
		c-17.9,9.1-35.5,18.6-53.4,27.7c-3.4,1.7-4.5,3.7-4.5,7.5c0.1,35.4,0,70.7,0.1,106.1C284.6,168.2,284.8,170,284.9,172.6z
		 M149.6,171.9c5-2.7,9.8-5.5,14.7-7.9c3.2-1.5,4.3-3.5,4.3-7.1c-0.2-29.4-0.1-58.7,0.1-88.1c0-1.7,1.1-4.3,2.5-5.1
		c5.2-3,10.7-5.4,16.1-8.2c6.9-3.5,13.8-7.1,21-10.8c-1.2-1.1-1.9-1.6-2.5-2.2c2.2,0.3,4.1,0.8,5.9,1.7
		c10.8,5.4,21.5,11.1,32.5,16.4c5.5,2.7,8.9,5.7,8.4,12.7c-0.7,8.1-0.2,16.4-0.2,24.5c0.1,20.1,0.1,40.2,0.2,60.2
		c0,1.3,0.1,3.4,0.9,3.8c5.7,3.5,11.6,6.6,18.1,10.3c0-2.7,0-4.3,0-5.8c0-35.2-0.1-70.4,0.1-105.7c0-4.9-1.9-7.1-6-8.4
		c-0.7-0.2-1.5-0.3-2.2-0.7c-16.5-8.6-32.9-17.2-49.3-25.9c-3.1-1.6-5.4-1.3-8.6,0c-9.3,3.6-16.5,10.8-26.2,14.1
		c-9.1,3.1-17.3,8.8-26,13.1c-3.4,1.7-4.5,3.8-4.5,7.6c0.1,33.7,0.1,67.4,0.1,101c0,2.1,0.6,4.2,0.8,6.4
		C149.8,169.1,149.6,170.2,149.6,171.9z M200.8,139.6c0,5.2,0.2,10.5-0.1,15.7c-0.2,3.5,0.7,5.2,4.6,4.8c3.4-0.3,6.8-0.3,10.2,0
		c3.4,0.2,4.2-1.2,4.2-4.3c-0.2-8.8-0.1-17.6-0.1-26.3c0-9.4,0-9.4-9.1-9.4c-2,0-4,0.2-6,0c-3-0.3-3.7,1.1-3.7,3.8
		C200.8,129.2,200.7,134.4,200.8,139.6z M67.7,71.4c-7,0-13.4,0-19.9,0c0,7.9,0,15.4,0,23.1c6.8,0,13.3,0,19.9,0
		C67.7,86.6,67.7,79.1,67.7,71.4z M80.1,71.1c0,8.1,0,15.7,0,23.3c6.7,0,13.1,0,19.5,0c0-7.9,0-15.5,0-23.3
		C93,71.1,86.8,71.1,80.1,71.1z M67.5,128c0-7.7,0-15.4,0-23.3c-6.6,0-13.1,0-19.6,0c0,8,0,15.6,0,23.3C54.5,128,60.8,128,67.5,128z
		 M80,127.8c6.9,0,13.2,0,20,0c0-7.2,0.1-14.1-0.1-21c0-0.8-1.3-2.3-2-2.3c-5.9-0.2-11.9-0.1-17.9-0.1C80,112.5,80,120,80,127.8z
		 M352.7,94c7,0,13.2,0,19.8,0c0-6.9,0.1-13.3-0.1-19.8c0-1-2-2.7-3.1-2.8c-4.4-0.3-8.9-0.3-13.4,0c-1.1,0.1-2.9,1.8-3,2.8
		C352.5,80.8,352.7,87.3,352.7,94z M372.5,127.6c0-3,0-5.6,0-8.2c0-16.2,0-16.2-16.5-14.6c-0.5,0-1.1-0.1-1.3,0.2
		c-0.7,0.6-1.8,1.4-1.8,2.2c-0.1,6.7-0.1,13.5-0.1,20.5C359.4,127.6,365.5,127.6,372.5,127.6z M340.1,94.4c0-7.2,0.1-13.7-0.1-20.1
		c0-1-1.9-2.7-3-2.8c-4.3-0.3-8.6-0.4-12.9,0c-1.2,0.1-3,2.1-3.1,3.3c-0.3,5.5-0.3,11.1,0,16.6c0,1,1.5,2.8,2.4,2.9
		C328.7,94.6,334.1,94.4,340.1,94.4z M340.1,127.8c0-7.2,0.1-13.6-0.1-20.1c0-1-1.9-2.7-3-2.8c-4.3-0.3-8.6-0.4-12.9,0
		c-1.2,0.1-3,2.1-3.1,3.3c-0.3,5.5-0.3,11.1,0,16.6c0,1,1.5,2.8,2.4,2.9C328.7,127.9,334.1,127.8,340.1,127.8z"/>
	<path class="st1" d="M12.3,173.4c0-2.5,0-3.8,0-5.2c0-36.1,0.1-72.3-0.1-108.4c0-3.7,1.1-5.6,4.3-7c3.9-1.7,7.5-4.4,11.5-5.9
		c4-1.5,4.7-3.9,4.6-7.8c-0.3-9.2-0.1-18.5-0.1-28.1c6.8,0,13.4,0,20.4,0c0,7.4,0,14.7,0,22.8c6.4-3.3,12.1-6.5,17.9-9.2
		c1.5-0.7,4-0.9,5.4-0.1c19,9.6,38,19.3,56.8,29.1c1.4,0.7,2.8,2.9,2.8,4.5c0.2,37.2,0.1,74.5,0.1,111.7c0,0.9-0.2,1.8-0.4,3.4
		c-6.7-3.7-12.9-6.9-18.9-10.6c-1.1-0.7-1.3-3.2-1.3-4.9c-0.1-28.7-0.2-57.5,0.1-86.2c0-4.4-1.1-6.9-5.3-8.8
		C99,57.5,88.1,51.7,76.9,46.4c-1.6-0.8-4.2-0.9-5.8-0.1c-11.5,5.6-22.9,11.5-34.4,17.1c-2.9,1.4-3.9,3.1-3.9,6.4
		c0.1,29.2,0,58.4,0.2,87.6c0,3.6-1,5.6-4.3,7.1C23.4,167,18.4,170.1,12.3,173.4z"/>
	<path class="st0" d="M284.9,172.6c-0.1-2.6-0.3-4.4-0.3-6.2c0-35.4,0.1-70.7-0.1-106.1c0-3.7,1.1-5.7,4.5-7.5
		c17.9-9.1,35.6-18.6,53.4-27.7c1.7-0.9,4.5-1,6.2-0.1c18.8,9.4,37.4,19.1,56.1,28.6c2.2,1.1,3.1,2.3,3.1,4.9
		c-0.1,36.7-0.1,73.5-0.1,110.2c0,1-0.2,2.1-0.3,3.8c-6.4-3.5-12.4-6.5-18.1-10.1c-1.2-0.7-1.6-3.5-1.6-5.3
		c-0.1-28.6-0.2-57.1,0-85.7c0-4.6-1.2-7.2-5.5-9.2c-11.1-5.1-21.8-10.8-32.8-16c-1.9-0.9-4.9-1.1-6.8-0.2
		c-11.6,5.5-22.9,11.5-34.4,17.1c-2.8,1.4-3.6,3.1-3.6,6.1c0.1,29,0,58.1,0.2,87.1c0,4-1.2,6.2-4.7,7.9
		C295.2,166.7,290.5,169.6,284.9,172.6z"/>
	<path class="st2" d="M149.6,171.9c0.1-1.6,0.3-2.8,0.2-3.8c-0.2-2.1-0.8-4.2-0.8-6.4c-0.1-33.7,0-67.4-0.1-101
		c0-3.8,1.1-5.9,4.5-7.6c8.7-4.3,16.9-10.1,26-13.1c9.7-3.3,16.9-10.4,26.2-14.1c3.2-1.2,5.5-1.6,8.6,0
		c16.4,8.7,32.9,17.3,49.3,25.9c0.7,0.4,1.5,0.4,2.2,0.7c4.1,1.3,6,3.5,6,8.4c-0.2,35.2-0.1,70.4-0.1,105.7c0,1.5,0,3.1,0,5.8
		c-6.5-3.6-12.4-6.8-18.1-10.3c-0.8-0.5-0.9-2.5-0.9-3.8c-0.1-20.1-0.2-40.2-0.2-60.2c0-8.2-0.5-16.4,0.2-24.5
		c0.6-7-2.8-10-8.4-12.7c-10.9-5.3-21.6-10.9-32.5-16.4c-1.8-0.9-3.7-1.5-5.9-1.7c0.6,0.6,1.3,1.1,2.5,2.2
		c-7.2,3.7-14.1,7.3-21,10.8c-5.4,2.7-10.9,5.1-16.1,8.2c-1.4,0.8-2.5,3.3-2.5,5.1c-0.2,29.4-0.2,58.7-0.1,88.1
		c0,3.6-1.1,5.6-4.3,7.1C159.3,166.3,154.6,169.1,149.6,171.9z"/>
	<path class="st2" d="M200.8,139.6c0-5.2,0.1-10.5,0-15.7c-0.1-2.7,0.7-4.1,3.7-3.8c2,0.2,4,0,6,0c9.1,0,9.1,0,9.1,9.4
		c0,8.8-0.1,17.6,0.1,26.3c0.1,3.1-0.8,4.5-4.2,4.3c-3.4-0.2-6.8-0.3-10.2,0c-3.9,0.3-4.7-1.4-4.6-4.8
		C200.9,150.1,200.8,144.9,200.8,139.6z"/>
	<path class="st1" d="M67.7,71.4c0,7.8,0,15.3,0,23.1c-6.7,0-13.2,0-19.9,0c0-7.7,0-15.2,0-23.1C54.3,71.4,60.8,71.4,67.7,71.4z"/>
	<path class="st1" d="M80.1,71.1c6.6,0,12.8,0,19.5,0c0,7.8,0,15.4,0,23.3c-6.4,0-12.8,0-19.5,0C80.1,86.8,80.1,79.2,80.1,71.1z"/>
	<path class="st1" d="M67.5,128c-6.7,0-13,0-19.6,0c0-7.8,0-15.4,0-23.3c6.5,0,13,0,19.6,0C67.5,112.5,67.5,120.3,67.5,128z"/>
	<path class="st1" d="M80,127.8c0-7.8,0-15.3,0-23.5c6,0,12-0.1,17.9,0.1c0.7,0,2,1.5,2,2.3c0.2,6.9,0.1,13.8,0.1,21
		C93.2,127.8,86.8,127.8,80,127.8z"/>
	<path class="st0" d="M352.7,94c0-6.8-0.1-13.2,0.1-19.7c0-1,1.9-2.7,3-2.8c4.4-0.3,8.9-0.3,13.4,0c1.1,0.1,3.1,1.8,3.1,2.8
		c0.3,6.4,0.1,12.9,0.1,19.8C365.8,94,359.6,94,352.7,94z"/>
	<path class="st0" d="M372.5,127.6c-6.9,0-13,0-19.8,0c0-7-0.1-13.7,0.1-20.5c0-0.7,1.1-1.5,1.8-2.2c0.3-0.2,0.9-0.1,1.3-0.2
		c16.5-1.6,16.5-1.6,16.5,14.6C372.5,122,372.5,124.6,372.5,127.6z"/>
	<path class="st0" d="M340.1,94.4c-6,0-11.4,0.1-16.7-0.1c-0.9,0-2.4-1.8-2.4-2.9c-0.3-5.5-0.3-11.1,0-16.6c0.1-1.2,1.9-3.2,3.1-3.3
		c4.3-0.4,8.6-0.4,12.9,0c1.1,0.1,3,1.8,3,2.8C340.2,80.8,340.1,87.2,340.1,94.4z"/>
	<path class="st0" d="M340.1,127.8c-6,0-11.4,0.1-16.8-0.1c-0.9,0-2.4-1.8-2.4-2.9c-0.2-5.5-0.3-11.1,0-16.6
		c0.1-1.2,1.9-3.2,3.1-3.3c4.3-0.4,8.6-0.3,12.9,0c1.1,0.1,3,1.8,3,2.8C340.2,114.2,340.1,120.6,340.1,127.8z"/>
</g>
</svg>
